<svg xmlns="http://www.w3.org/2000/svg" viewBox="0 0 24 24" id="Astronomy-Telescope--Streamline-Streamline--3.0.svg"><desc>Astronomy Telescope Streamline Icon: https://streamlinehq.com</desc><defs></defs><title>astronomy-telescope</title><path d="m9.775 12.368 -4.17 2.095a1.973 1.973 0 0 1 -2.65 -0.878h0a1.973 1.973 0 0 1 0.878 -2.65l6.174 -3.1 1.183 2.355" fill="none" stroke="#ffffff" stroke-linecap="round" stroke-linejoin="round" stroke-width="1"></path><path d="M10.45 8.714a1.973 1.973 0 0 1 0.877 -2.65l6.175 -3.1 2.659 5.292 -5.112 2.568" fill="none" stroke="#ffffff" stroke-linecap="round" stroke-linejoin="round" stroke-width="1"></path><path d="m0.75 14.694 2.205 -1.109" fill="none" stroke="#ffffff" stroke-linecap="round" stroke-linejoin="round" stroke-width="1"></path><path d="m18.822 1.192 0.882 -0.443 0 0 3.547 7.059 0 0 -0.882 0.443a1.974 1.974 0 0 1 -2.65 -0.878l-1.774 -3.53a1.974 1.974 0 0 1 0.877 -2.65Z" fill="none" stroke="#ffffff" stroke-linecap="round" stroke-linejoin="round" stroke-width="1"></path><path d="M15.43 11.4a3 3 0 1 1 -4.03 -1.33 3 3 0 0 1 4.03 1.33Z" fill="none" stroke="#ffffff" stroke-linecap="round" stroke-linejoin="round" stroke-width="1"></path><path d="m12.75 15.75 0 7.5" fill="none" stroke="#ffffff" stroke-linecap="round" stroke-linejoin="round" stroke-width="1"></path><path d="m6 23.25 4.591 -8.417" fill="none" stroke="#ffffff" stroke-linecap="round" stroke-linejoin="round" stroke-width="1"></path><path d="m19.5 23.25 -4.591 -8.417" fill="none" stroke="#ffffff" stroke-linecap="round" stroke-linejoin="round" stroke-width="1"></path></svg>