<?xml version="1.0" encoding="UTF-8"?>
<svg width="18px" height="18px" viewBox="0 0 18 18" version="1.1" xmlns="http://www.w3.org/2000/svg" xmlns:xlink="http://www.w3.org/1999/xlink">
    <title>icons/Interface-Essential / Date/Calendar / calendar-3</title>
    <g id="icons/Interface-Essential-/-Date/Calendar-/-calendar-3" stroke="none" stroke-width="1" fill="none" fill-rule="evenodd">
        <g id="calendar-3" fill="#FFFFFF">
            <path d="M13.875,0.00075 C14.0562184,0.00075 14.207414,0.129293246 14.2423813,0.30017442 L14.25,0.37575 L14.25,1.50075 L16.875,1.50075 C17.454899,1.50075 17.9323199,1.93951095 17.9933987,2.50316886 L18,2.62575 L18,16.87575 C18,17.4970703 17.4963203,18.00075 16.875,18.00075 L16.875,18.00075 L1.125,18.00075 C0.503679656,18.00075 0,17.4970703 0,16.87575 L0,16.87575 L0,2.62575 C0,2.00442966 0.503679656,1.50075 1.125,1.50075 L1.125,1.50075 L3.75,1.50075 L3.75,0.37575 C3.75,0.168643219 3.91789322,0.00075 4.125,0.00075 C4.30621843,0.00075 4.45741398,0.129293246 4.49238133,0.30017442 L4.5,0.37575 L4.5,1.50075 L13.5,1.50075 L13.5,0.37575 C13.5,0.168643219 13.6678932,0.00075 13.875,0.00075 Z M4.125,15.00075 L0.75,15.00075 L0.75,16.87575 C0.75,17.0569684 0.878543246,17.208164 1.04942442,17.2431313 L1.125,17.25075 L4.125,17.25075 L4.125,15.00075 Z M13.125,15.00075 L9.375,15.00075 L9.375,17.25075 L13.125,17.25075 L13.125,15.00075 Z M8.625,15.00075 L4.875,15.00075 L4.875,17.25075 L8.625,17.25075 L8.625,15.00075 Z M17.25,15.00075 L13.875,15.00075 L13.875,17.25075 L16.875,17.25075 C17.0562184,17.25075 17.207414,17.1222068 17.2423813,16.9513256 L17.25,16.87575 L17.25,15.00075 Z M4.125,12.00075 L0.75,12.00075 L0.75,14.25075 L4.125,14.25075 L4.125,12.00075 Z M8.625,12.00075 L4.875,12.00075 L4.875,14.25075 L8.625,14.25075 L8.625,12.00075 Z M13.125,12.00075 L9.375,12.00075 L9.375,14.25075 L13.125,14.25075 L13.125,12.00075 Z M17.25,12.00075 L13.875,12.00075 L13.875,14.25075 L17.25,14.25075 L17.25,12.00075 Z M4.125,9.00075 L0.75,9.00075 L0.75,11.25075 L4.125,11.25075 L4.125,9.00075 Z M8.625,9.00075 L4.875,9.00075 L4.875,11.25075 L8.625,11.25075 L8.625,9.00075 Z M13.125,9.00075 L9.375,9.00075 L9.375,11.25075 L13.125,11.25075 L13.125,9.00075 Z M17.25,9.00075 L13.875,9.00075 L13.875,11.25075 L17.25,11.25075 L17.25,9.00075 Z M4.125,6.00075 L0.75,6.00075 L0.75,8.25075 L4.125,8.25075 L4.125,6.00075 Z M8.625,6.00075 L4.875,6.00075 L4.875,8.25075 L8.625,8.25075 L8.625,6.00075 Z M13.125,6.00075 L9.375,6.00075 L9.375,8.25075 L13.125,8.25075 L13.125,6.00075 Z M17.25,6.00075 L13.875,6.00075 L13.875,8.25075 L17.25,8.25075 L17.25,6.00075 Z M3.75,2.25075 L1.125,2.25075 C0.917893219,2.25075 0.75,2.41864322 0.75,2.62575 L0.75,2.62575 L0.75,5.25075 L17.25,5.25075 L17.25,2.62575 C17.25,2.44453157 17.1214568,2.29333602 16.9505756,2.25836867 L16.875,2.25075 L14.25,2.25075 L14.25,4.12575 C14.25,4.33285678 14.0821068,4.50075 13.875,4.50075 C13.6937816,4.50075 13.542586,4.37220675 13.5076187,4.20132558 L13.5,4.12575 L13.5,2.25075 L4.5,2.25075 L4.5,4.12575 C4.5,4.33285678 4.33210678,4.50075 4.125,4.50075 C3.94378157,4.50075 3.79258602,4.37220675 3.75761867,4.20132558 L3.75,4.12575 L3.75,2.25075 Z" id="Combined-Shape"></path>
        </g>
    </g>
</svg>