<?xml version="1.0" encoding="UTF-8"?>
<svg width="18px" height="18px" viewBox="0 0 18 18" version="1.1" xmlns="http://www.w3.org/2000/svg" xmlns:xlink="http://www.w3.org/1999/xlink">
    <title>icons/Files-Folders / Common-Files / common-file-text</title>
    <g id="icons/Files-Folders-/-Common-Files-/-common-file-text" stroke="none" stroke-width="1" fill="none" fill-rule="evenodd">
        <g id="common-file-text" transform="translate(1.000000, 0.000000)" fill="#FFFFFF">
            <path d="M11.59475,0 C11.8931054,0 12.1792445,0.118600641 12.390165,0.329584957 L12.390165,0.329584957 L15.170375,3.10979491 C15.3813994,3.32075555 15.5,3.60689457 15.5,3.90525 L15.5,3.90525 L15.5,16.875 C15.5,17.4963203 14.9963203,18 14.375,18 L14.375,18 L1.625,18 C1.00367966,18 0.5,17.4963203 0.5,16.875 L0.5,16.875 L0.5,1.125 C0.5,0.503679656 1.00367966,0 1.625,0 L1.625,0 Z M11.59475,0.75 L1.625,0.75 C1.41789322,0.75 1.25,0.917893219 1.25,1.125 L1.25,1.125 L1.25,16.875 C1.25,17.0821068 1.41789322,17.25 1.625,17.25 L1.625,17.25 L14.375,17.25 C14.5821068,17.25 14.75,17.0821068 14.75,16.875 L14.75,16.875 L14.75,3.90525 C14.75,3.80588858 14.710478,3.71053688 14.640085,3.64016504 L14.640085,3.64016504 L11.8597949,0.859874991 C11.7894631,0.789521952 11.6941114,0.75 11.59475,0.75 L11.59475,0.75 Z M12.5,13.875 C12.7071068,13.875 12.875,14.0428932 12.875,14.25 C12.875,14.4312184 12.7464568,14.582414 12.5755756,14.6173813 L12.5,14.625 L3.5,14.625 C3.29289322,14.625 3.125,14.4571068 3.125,14.25 C3.125,14.0687816 3.25354325,13.917586 3.42442442,13.8826187 L3.5,13.875 L12.5,13.875 Z M12.5,11.625 C12.7071068,11.625 12.875,11.7928932 12.875,12 C12.875,12.1812184 12.7464568,12.332414 12.5755756,12.3673813 L12.5,12.375 L3.5,12.375 C3.29289322,12.375 3.125,12.2071068 3.125,12 C3.125,11.8187816 3.25354325,11.667586 3.42442442,11.6326187 L3.5,11.625 L12.5,11.625 Z M12.5,9.375 C12.7071068,9.375 12.875,9.54289322 12.875,9.75 C12.875,9.93121843 12.7464568,10.082414 12.5755756,10.1173813 L12.5,10.125 L3.5,10.125 C3.29289322,10.125 3.125,9.95710678 3.125,9.75 C3.125,9.56878157 3.25354325,9.41758602 3.42442442,9.38261867 L3.5,9.375 L12.5,9.375 Z M12.5,7.125 C12.7071068,7.125 12.875,7.29289322 12.875,7.5 C12.875,7.68121843 12.7464568,7.83241398 12.5755756,7.86738133 L12.5,7.875 L3.5,7.875 C3.29289322,7.875 3.125,7.70710678 3.125,7.5 C3.125,7.31878157 3.25354325,7.16758602 3.42442442,7.13261867 L3.5,7.125 L12.5,7.125 Z M8.75,4.875 C8.95710678,4.875 9.125,5.04289322 9.125,5.25 C9.125,5.43121843 8.99645675,5.58241398 8.82557558,5.61738133 L8.75,5.625 L3.5,5.625 C3.29289322,5.625 3.125,5.45710678 3.125,5.25 C3.125,5.06878157 3.25354325,4.91758602 3.42442442,4.88261867 L3.5,4.875 L8.75,4.875 Z" id="Combined-Shape"></path>
        </g>
    </g>
</svg>