<?xml version="1.0" encoding="UTF-8"?>
<svg width="18px" height="18px" viewBox="0 0 18 18" version="1.1" xmlns="http://www.w3.org/2000/svg" xmlns:xlink="http://www.w3.org/1999/xlink">
    <title>icons/download</title>
    <g id="icons/download" stroke="none" stroke-width="1" fill="none" fill-rule="evenodd">
        <g id="icon-download" fill="#FFFFFF">
            <path d="M0.818181818,12 L0.818181818,16.7185889 C0.818181818,16.9545183 0.981818182,17.1118046 1.22727273,17.1118046 L1.22727273,17.1118046 L16.7727273,17.1118046 C17.0181818,17.1118046 17.1818182,16.9545183 17.1818182,16.7185889 L17.1818182,16.7185889 L17.1818182,12 L18,12 L18,16.7185889 C18,17.3870556 17.4681818,17.8982361 16.7727273,17.8982361 L16.7727273,17.8982361 L1.22727273,17.8982361 C0.531818182,17.8982361 0,17.3870556 0,16.7185889 L0,16.7185889 L0,12 L0.818181818,12 Z M9.27145285,-3.32178729e-13 L9.27145285,11.8620744 L12.6563297,8.64458364 L13.2272727,9.18729292 L8.86363636,13.3351425 L4.5,9.18729292 L5.07094308,8.64458364 L8.45581988,11.8620744 L8.45581988,-3.32178729e-13 L9.27145285,-3.32178729e-13 Z" id="Combined-Shape"></path>
        </g>
    </g>
</svg>