<?xml version="1.0" encoding="UTF-8"?>
<svg width="18px" height="18px" viewBox="0 0 18 18" version="1.1" xmlns="http://www.w3.org/2000/svg" xmlns:xlink="http://www.w3.org/1999/xlink">
    <title>icons/facebook</title>
    <g id="icons/facebook" stroke="none" stroke-width="1" fill="none" fill-rule="evenodd">
        <path d="M1.8830472,1 C1.39524306,1 1,1.39524306 1,1.8830472 L1,16.1169528 C1,16.604637 1.39524306,17 1.8830472,17 L9.54607447,17 L9.54607447,10.8039821 L7.460992,10.8039821 L7.460992,8.38924067 L9.54607447,8.38924067 L9.54607447,6.60845879 C9.54607447,4.54184058 10.8082984,3.4165399 12.6518468,3.4165399 C13.534894,3.4165399 14.2939069,3.48230384 14.5150584,3.51167879 L14.5150584,5.67139763 L13.2364684,5.67199712 C12.2338232,5.67199712 12.0397086,6.14841098 12.0397086,6.84753498 L12.0397086,8.38924067 L14.4308902,8.38924067 L14.1195156,10.8039821 L12.0397086,10.8039821 L12.0397086,17 L16.1169528,17 C16.604637,17 17,16.604637 17,16.1169528 L17,1.8830472 C17,1.39524306 16.604637,1 16.1169528,1 L1.8830472,1 Z" id="Logo" fill="#FFFFFF"></path>
    </g>
</svg>