<?xml version="1.0" encoding="UTF-8"?>
<svg width="18px" height="18px" viewBox="0 0 18 18" version="1.1" xmlns="http://www.w3.org/2000/svg" xmlns:xlink="http://www.w3.org/1999/xlink">
    <title>icons/handshake</title>
    <g id="icons/handshake" stroke="none" stroke-width="1" fill="none" fill-rule="evenodd">
        <g id="business-deal-handshake-circle" fill="#FFFFFF">
            <path d="M9,0.0625 C12.8865031,0.0625 16.1936031,2.54322017 17.4242562,6.00761696 C17.4260146,6.01241687 17.4277177,6.01704171 17.4293538,6.02169807 C17.7583819,6.95316525 17.9375,7.95566499 17.9375,9 C17.9375,10.044335 17.7583819,11.0468347 17.4291912,11.9784539 C17.4277177,11.9829583 17.4260146,11.9875831 17.4242457,11.9921753 C16.1936031,15.4567798 12.8865031,17.9375 9,17.9375 C5.11349685,17.9375 1.80639695,15.4567798 0.575743827,11.992383 C0.573985418,11.9875831 0.572282325,11.9829583 0.570646207,11.9783019 C0.241618071,11.0468347 0.0625,10.044335 0.0625,9 C0.0625,7.95566499 0.241618071,6.95316525 0.570808846,6.02154614 C0.572282325,6.01704171 0.573985418,6.01241687 0.575754329,6.00782472 C1.80639695,2.54322017 5.11349685,0.0625 9,0.0625 Z M13.5725,11.1105 L10.7025,11.6835 L8.56758197,13.4475707 C8.13438568,13.805223 7.51036319,13.7843546 7.15941445,13.4697956 L7.0834849,13.3920302 L4.93,11.749 L4.18445502,11.7508151 C3.94939935,12.0791294 3.5751943,12.2951634 3.16326246,12.3131827 L1.78451887,12.3122904 C3.03972412,15.0421296 5.79851833,16.9375 9,16.9375 C12.2014817,16.9375 14.9602759,15.0421296 16.2154811,12.3122904 L14.9892268,12.3117852 C14.2883033,12.3493057 13.6827309,11.8473676 13.5764733,11.1428823 L13.5725,11.1105 Z M6.88291214,6.03344013 L6.7689795,6.06924134 L4.4375,7.0615 L4.4365,10.7495 L5.1,10.75 C5.18218963,10.75 5.26267214,10.7702514 5.33453352,10.808418 L5.4032651,10.8524698 L7.76118911,12.6631462 C7.79400381,12.7002277 7.84443104,12.7128025 7.88905196,12.6990562 L7.93087009,12.6764689 L10.1190314,10.8667867 C10.1442975,10.8415273 10.1723703,10.8188673 10.2028875,10.7993498 L11.1254474,10.0383183 C11.1664408,10.0043895 11.1817037,9.95065888 11.1784432,9.91421026 L11.169275,9.88489577 L9.6455,8.1905 L9.32448591,8.32658699 C8.92735522,8.4907257 8.48020432,8.48434922 8.08811772,8.30904355 C7.6954366,8.13368082 7.38933248,7.80837171 7.24029374,7.41134157 C7.06241233,6.95427615 7.10240164,6.46144665 7.31771369,6.05235461 C7.17819508,6.00627381 7.02637581,5.99996876 6.88291214,6.03344013 Z M1.40497276,6.68637984 C1.18227536,7.41837599 1.0625,8.19520048 1.0625,9 C1.0625,9.80443354 1.18216644,10.5809175 1.40466901,11.3126215 L3.06422681,11.3132148 C3.23521767,11.322368 3.38458309,11.209173 3.42640909,11.069635 L3.4375,11.0085 L3.43839833,7.02070862 C3.42814434,6.84988035 3.29890896,6.7143282 3.11799991,6.69059979 L3.0375,6.6875 Z M16.9375,9 C16.9375,8.19520048 16.8177246,7.41837599 16.5950272,6.68637984 L14.9357472,6.68678377 C14.9073261,6.6852609 14.8795019,6.68711832 14.8526692,6.69191377 C14.8128639,6.71731361 14.7687088,6.73496619 14.7227545,6.74616812 C14.6497477,6.78773857 14.5961662,6.85500473 14.5736341,6.9298081 L14.5625,6.99075 L14.5615,10.4855 C14.5625904,10.4987789 14.5626126,10.5028585 14.5625848,10.5069303 L14.5616277,10.9789782 C14.5717381,11.1499151 14.7009934,11.2856214 14.881969,11.3093903 L14.9625,11.3125 L16.595331,11.3126215 C16.8178336,10.5809175 16.9375,9.80443354 16.9375,9 Z M10.281566,5.35148635 L10.1532106,5.40716148 L8.47023085,6.24660925 C8.18188567,6.39971162 8.05380075,6.74441607 8.17434067,7.05424129 C8.23152989,7.2065509 8.34732993,7.32961624 8.49608452,7.39604682 C8.60938455,7.44670433 8.7353607,7.45830914 8.85276524,7.43136254 L8.93887947,7.40393204 L10.6338795,6.68768204 C10.8882441,6.58019609 11.181582,6.69926481 11.289068,6.95362947 C11.384611,7.17973139 11.3011479,7.43662697 11.1027726,7.56641431 L11.0231205,7.60881796 L10.6195,7.7785 L11.9364059,9.24447028 C12.1979222,9.58236263 12.238836,10.0228118 12.0784651,10.3903193 L13.5615,10.0925 L13.5633983,6.96079138 C13.5745878,6.77437771 13.6229548,6.59898659 13.7004529,6.44141266 L10.9491719,5.35712647 C10.7344077,5.27618852 10.4994175,5.27444569 10.281566,5.35148635 Z M9,1.0625 C5.79891033,1.0625 3.04039972,2.95740625 1.78498001,5.68670691 L3.01074716,5.68821623 C3.43008171,5.66574726 3.8153273,5.83636827 4.07993823,6.12805144 L6.38718278,5.14506042 C6.92500048,4.92976954 7.52927443,4.98135085 8.03334572,5.28708282 L8.0845,5.3215 L9.69990284,4.51584089 C10.1411455,4.28712586 10.6502835,4.23457981 11.1303389,4.36609987 L11.308807,4.42406342 L14.5995234,5.71959943 C14.6741821,5.70206252 14.7509161,5.69105767 14.8290309,5.6871714 L16.21502,5.68670691 C14.9596003,2.95740625 12.2010897,1.0625 9,1.0625 Z" id="Combined-Shape"></path>
        </g>
    </g>
</svg>