<?xml version="1.0" encoding="utf-8"?>
<!-- Generator: Adobe Illustrator 16.0.3, SVG Export Plug-In . SVG Version: 6.00 Build 0)  -->
<!DOCTYPE svg PUBLIC "-//W3C//DTD SVG 1.1//EN" "http://www.w3.org/Graphics/SVG/1.1/DTD/svg11.dtd">
<svg version="1.1" xmlns="http://www.w3.org/2000/svg" xmlns:xlink="http://www.w3.org/1999/xlink" x="0px" y="0px" width="500px"
	 height="500px" viewBox="0 0 500 500" enable-background="new 0 0 500 500" xml:space="preserve">
<g id="Calque_1">
	
		<rect x="300.651" y="43.986" transform="matrix(-0.6111 0.7915 -0.7915 -0.6111 685.7021 -151.7397)" fill="#FFFFFF" width="158.951" height="97.177"/>
	<path fill="#FFFFFF" d="M299.838,152.339L196.29,287.742c13.948,9.641,25.822,21.98,34.919,36.29l108.146-141.693L299.838,152.339z
		"/>
	<path fill="#FFFFFF" d="M307.258,285c6.305-3.885,12.912-7.256,19.758-10.08l-12.5-29.436l-15.483,20.645L307.258,285z"/>
	<path fill="#FFFFFF" d="M183.468,191.129L203.065,250l16.129-21.291l-10.646-31.371l37.5-3.791l18.468-24.193l-71.693,7.338
		c-6.069,0.633-10.476,6.065-9.843,12.135c0.001,0.014,0.003,0.028,0.004,0.043C183.077,189.637,183.239,190.393,183.468,191.129z"
		/>
	<path fill="#FFFFFF" d="M373.145,346.209c-25.031-0.044-45.358,20.211-45.403,45.242c-0.044,25.031,20.211,45.359,45.242,45.403
		c25.031,0.045,45.358-20.211,45.403-45.241c0-0.027,0-0.055,0-0.081C418.387,366.533,398.145,346.254,373.145,346.209z"/>
	<path fill="#FFFFFF" d="M373.145,282.984c-59.949-0.045-108.584,48.518-108.629,108.467
		c-0.044,59.95,48.519,108.585,108.468,108.63c59.949,0.044,108.584-48.519,108.629-108.468c0-0.027,0-0.055,0-0.081l0,0
		C481.613,331.614,433.063,283.028,373.145,282.984z M437.661,391.532c0,35.631-28.885,64.517-64.517,64.517
		c-35.631,0-64.516-28.886-64.516-64.517c0-35.632,28.885-64.517,64.516-64.517C408.777,327.016,437.661,355.9,437.661,391.532z"/>
	<path fill="#FFFFFF" d="M127.097,345.161c-25.521-0.044-46.246,20.608-46.29,46.13c-0.045,25.521,20.608,46.245,46.129,46.289
		c25.489,0.045,46.201-20.559,46.29-46.048c0.089-25.521-20.527-46.282-46.048-46.37
		C127.151,345.162,127.123,345.161,127.097,345.161z"/>
	<path fill="#FFFFFF" d="M127.097,282.984C67.148,282.85,18.441,331.341,18.307,391.29s48.356,108.656,108.307,108.79
		c59.949,0.134,108.656-48.356,108.789-108.307c0.001-0.026,0.001-0.053,0.001-0.08l0,0
		C235.492,331.775,187.015,283.117,127.097,282.984z M127.097,456.29c-35.632-0.001-64.516-28.887-64.515-64.518
		c0.001-35.632,28.887-64.516,64.519-64.515c35.441,0.002,64.246,28.592,64.512,64.033l0,0c0.268,35.63-28.399,64.73-64.03,64.997
		C127.42,456.29,127.259,456.29,127.097,456.29z"/>
</g>
<g id="Calque_2">
</g>
</svg>
