<?xml version="1.0" encoding="UTF-8"?>
<svg width="18px" height="18px" viewBox="0 0 18 18" version="1.1" xmlns="http://www.w3.org/2000/svg" xmlns:xlink="http://www.w3.org/1999/xlink">
    <title>icons/linkedin</title>
    <g id="icons/linkedin" stroke="none" stroke-width="1" fill="none" fill-rule="evenodd">
        <path d="M17,17 L13.5794142,17 L13.5794142,11.9380893 C13.5794142,10.731228 13.5576311,9.17842402 11.8021703,9.17842402 C10.021723,9.17842402 9.75007508,10.4937332 9.75007508,11.852058 L9.75007508,17 L6.33333333,17 L6.33333333,6.59142716 L9.61232907,6.59142716 L9.61232907,8.01457836 L9.65973932,8.01457836 C10.1159029,7.19606952 11.2319659,6.33333333 12.8958096,6.33333333 C16.3599616,6.33333333 17,8.48835624 17,11.291643 L17,17 L17,17 Z M2.60103359,4.2 C1.71472868,4.2 1,3.48331988 1,2.59974164 C1,1.71668012 1.71472868,1 2.60103359,1 C3.48372093,1 4.2,1.71668012 4.2,2.59974164 C4.2,3.48331988 3.48372093,4.2 2.60103359,4.2 L2.60103359,4.2 Z M1,6.33333333 L4.2,6.33333333 L4.2,17 L1,17 L1,6.33333333 Z" id="Logo" fill="#FFFFFF"></path>
    </g>
</svg>