<?xml version="1.0" encoding="UTF-8"?>
<svg width="18px" height="18px" viewBox="0 0 18 18" version="1.1" xmlns="http://www.w3.org/2000/svg" xmlns:xlink="http://www.w3.org/1999/xlink">
    <title>icons/list</title>
    <g id="icons/list" stroke="none" stroke-width="1" fill="none" fill-rule="evenodd">
        <g id="list-bullets" transform="translate(1.000000, 2.000000)" fill="#FFFFFF">
            <path d="M1.66666667,10.6653333 C2.58714125,10.6653333 3.33333333,11.4115254 3.33333333,12.332 C3.33333333,13.2524746 2.58714125,13.9986667 1.66666667,13.9986667 C0.746192084,13.9986667 0,13.2524746 0,12.332 C0,11.4115254 0.746192084,10.6653333 1.66666667,10.6653333 Z M1.66666667,11.332 C1.11438192,11.332 0.666666667,11.7797153 0.666666667,12.332 C0.666666667,12.8842847 1.11438192,13.332 1.66666667,13.332 C2.21895142,13.332 2.66666667,12.8842847 2.66666667,12.332 C2.66666667,11.7797153 2.21895142,11.332 1.66666667,11.332 Z M15.6666667,11.9986667 C15.8507616,11.9986667 16,12.1479051 16,12.332 C16,12.4956399 15.8820832,12.6317389 15.7265838,12.6599629 L15.6666667,12.6653333 L5.66666667,12.6653333 C5.48257175,12.6653333 5.33333333,12.5160949 5.33333333,12.332 C5.33333333,12.1683601 5.45125011,12.0322611 5.60674958,12.0040371 L5.66666667,11.9986667 L15.6666667,11.9986667 Z M1.66666667,5.332 C2.58714125,5.332 3.33333333,6.07819208 3.33333333,6.99866667 C3.33333333,7.91914125 2.58714125,8.66533333 1.66666667,8.66533333 C0.746192084,8.66533333 0,7.91914125 0,6.99866667 C0,6.07819208 0.746192084,5.332 1.66666667,5.332 Z M1.66666667,5.99866667 C1.11438192,5.99866667 0.666666667,6.44638192 0.666666667,6.99866667 C0.666666667,7.55095142 1.11438192,7.99866667 1.66666667,7.99866667 C2.21895142,7.99866667 2.66666667,7.55095142 2.66666667,6.99866667 C2.66666667,6.44638192 2.21895142,5.99866667 1.66666667,5.99866667 Z M15.6666667,6.66533333 C15.8507616,6.66533333 16,6.81457175 16,6.99866667 C16,7.16230659 15.8820832,7.29840558 15.7265838,7.32662955 L15.6666667,7.332 L5.66666667,7.332 C5.48257175,7.332 5.33333333,7.18276158 5.33333333,6.99866667 C5.33333333,6.83502674 5.45125011,6.69892775 5.60674958,6.67070378 L5.66666667,6.66533333 L15.6666667,6.66533333 Z M1.66666667,-0.00133333333 C2.58714125,-0.00133333333 3.33333333,0.74485875 3.33333333,1.66533333 C3.33333333,2.58580792 2.58714125,3.332 1.66666667,3.332 C0.746192084,3.332 0,2.58580792 0,1.66533333 C0,0.74485875 0.746192084,-0.00133333333 1.66666667,-0.00133333333 Z M1.66666667,0.665333333 C1.11438192,0.665333333 0.666666667,1.11304858 0.666666667,1.66533333 C0.666666667,2.21761808 1.11438192,2.66533333 1.66666667,2.66533333 C2.21895142,2.66533333 2.66666667,2.21761808 2.66666667,1.66533333 C2.66666667,1.11304858 2.21895142,0.665333333 1.66666667,0.665333333 Z M15.6666667,1.332 C15.8507616,1.332 16,1.48123842 16,1.66533333 C16,1.82897326 15.8820832,1.96507225 15.7265838,1.99329622 L15.6666667,1.99866667 L5.66666667,1.99866667 C5.48257175,1.99866667 5.33333333,1.84942825 5.33333333,1.66533333 C5.33333333,1.50169341 5.45125011,1.36559442 5.60674958,1.33737045 L5.66666667,1.332 L15.6666667,1.332 Z" id="Combined-Shape"></path>
        </g>
    </g>
</svg>