<?xml version="1.0" encoding="UTF-8"?>
<svg width="18px" height="18px" viewBox="0 0 18 18" version="1.1" xmlns="http://www.w3.org/2000/svg" xmlns:xlink="http://www.w3.org/1999/xlink">
    <title>icons/Interface-Essential / Hierarchy/Organization / hierarchy-9</title>
    <g id="icons/Interface-Essential-/-Hierarchy/Organization-/-hierarchy-9" stroke="none" stroke-width="1" fill="none" fill-rule="evenodd">
        <g id="hierarchy-9" fill="#FFFFFF">
            <path d="M16.5,-0.00075 C17.3284271,-0.00075 18,0.670822875 18,1.49925 C18,2.32767712 17.3284271,2.99925 16.5,2.99925 C16.2216551,2.99925 15.9610176,2.92343571 15.7376109,2.79133058 L12.7644472,5.77166814 C13.224362,6.34841769 13.49925,7.07923207 13.49925,7.87425 C13.49925,8.34776557 13.4017352,8.79850533 13.2256921,9.2074828 L15.2500925,10.0446621 C15.5188358,9.64056622 15.9783172,9.37425 16.5,9.37425 C17.3284271,9.37425 18,10.0458229 18,10.87425 C18,11.7026771 17.3284271,12.37425 16.5,12.37425 C15.6715729,12.37425 15,11.7026771 15,10.87425 C15,10.8339209 15.0015916,10.7939635 15.0047153,10.7544372 L12.8502165,9.86455062 C12.3059138,10.6087725 11.4642164,11.1217499 10.5000429,11.228564 L10.4998696,15.0466662 C11.1465154,15.2133976 11.62425,15.8005334 11.62425,16.49925 C11.62425,17.3276771 10.9526771,17.99925 10.12425,17.99925 C9.29582288,17.99925 8.62425,17.3276771 8.62425,16.49925 C8.62425,15.8005334 9.10198462,15.2133976 9.74863042,15.0466662 L9.74946301,11.2286752 C9.10156553,11.1570954 8.50893441,10.9021189 8.02463056,10.5168068 L2.79208058,15.7368609 C2.92418571,15.9602676 3,16.2209051 3,16.49925 C3,17.3276771 2.32842712,17.99925 1.5,17.99925 C0.671572875,17.99925 0,17.3276771 0,16.49925 C0,15.6708229 0.671572875,14.99925 1.5,14.99925 C1.77793193,14.99925 2.03820899,15.0748395 2.26139449,15.2065818 L7.49352373,9.98865443 C7.02791437,9.41008475 6.74925,8.67471015 6.74925,7.87425 C6.74925,7.5349135 6.79932986,7.20727379 6.8925019,6.89831854 L2.65456292,5.08190455 C2.37941959,5.41325317 1.96435027,5.62425 1.5,5.62425 C0.671572875,5.62425 0,4.95267712 0,4.12425 C0,3.29582288 0.671572875,2.62425 1.5,2.62425 C2.32842712,2.62425 3,3.29582288 3,4.12425 C3,4.21860152 2.99128871,4.31091842 2.97462656,4.40044026 L7.18830449,6.20847616 C7.76870272,5.18771713 8.8660763,4.49925 10.12425,4.49925 C10.9228961,4.49925 11.6567513,4.77665273 12.2347184,5.240361 L15.2073318,2.26064449 C15.0755895,2.03745899 15,1.77718193 15,1.49925 C15,0.670822875 15.6715729,-0.00075 16.5,-0.00075 Z M1.5,15.74925 C1.08578644,15.74925 0.75,16.0850364 0.75,16.49925 C0.75,16.9134636 1.08578644,17.24925 1.5,17.24925 C1.91421356,17.24925 2.25,16.9134636 2.25,16.49925 C2.25,16.293102 2.16682887,16.1063798 2.0322118,15.9708083 C2.03135145,15.9701763 2.03042599,15.969258 2.02950416,15.9683338 C1.89200167,15.8320347 1.70566854,15.74925 1.5,15.74925 Z M10.12425,15.74925 C9.71003644,15.74925 9.37425,16.0850364 9.37425,16.49925 C9.37425,16.9134636 9.71003644,17.24925 10.12425,17.24925 C10.5384636,17.24925 10.87425,16.9134636 10.87425,16.49925 C10.87425,16.0850364 10.5384636,15.74925 10.12425,15.74925 Z M16.5,10.12425 C16.0857864,10.12425 15.75,10.4600364 15.75,10.87425 C15.75,11.2884636 16.0857864,11.62425 16.5,11.62425 C16.9142136,11.62425 17.25,11.2884636 17.25,10.87425 C17.25,10.4600364 16.9142136,10.12425 16.5,10.12425 Z M10.12425,5.24925 C8.67450253,5.24925 7.49925,6.42450253 7.49925,7.87425 C7.49925,9.32399747 8.67450253,10.49925 10.12425,10.49925 C11.5739975,10.49925 12.74925,9.32399747 12.74925,7.87425 C12.74925,7.1528304 12.4582303,6.49938208 11.9871837,6.02489782 C11.9867532,6.02431912 11.9858256,6.02340306 11.9849015,6.02248118 C11.5053737,5.54306313 10.8491237,5.24925 10.12425,5.24925 Z M1.5,3.37425 C1.08578644,3.37425 0.75,3.71003644 0.75,4.12425 C0.75,4.53846356 1.08578644,4.87425 1.5,4.87425 C1.91421356,4.87425 2.25,4.53846356 2.25,4.12425 C2.25,3.71003644 1.91421356,3.37425 1.5,3.37425 Z M16.5,0.74925 C16.0857864,0.74925 15.75,1.08503644 15.75,1.49925 C15.75,1.91346356 16.0857864,2.24925 16.5,2.24925 C16.9142136,2.24925 17.25,1.91346356 17.25,1.49925 C17.25,1.08503644 16.9142136,0.74925 16.5,0.74925 Z" id="Combined-Shape"></path>
        </g>
    </g>
</svg>