<?xml version="1.0" encoding="UTF-8"?>
<svg width="18px" height="18px" viewBox="0 0 18 18" version="1.1" xmlns="http://www.w3.org/2000/svg" xmlns:xlink="http://www.w3.org/1999/xlink">
    <title>icons/user</title>
    <g id="icons/user" stroke="none" stroke-width="1" fill="none" fill-rule="evenodd">
        <path d="M12.8094366,11.1846871 C13.3837139,11.4014727 13.8240195,11.5783693 14.2073704,11.7496229 C15.2773281,12.227603 15.9076827,12.6669031 16.1923675,13.238345 C16.6323664,14.268636 16.8655719,15.3753629 16.8787764,16.4955976 C16.8811758,16.7044114 16.7125782,16.875 16.50375,16.875 L1.5,16.875 C1.29117183,16.875 1.12257424,16.7044114 1.1249736,16.4955976 C1.13817807,15.3753629 1.37138362,14.268636 1.82077144,13.2180567 C2.09606735,12.6669031 2.72642192,12.227603 3.79637962,11.7496229 C4.17973052,11.5783693 4.62003609,11.4014727 5.19431341,11.1846871 C5.51268583,11.0645037 6.72283321,10.6188817 6.82039005,10.5831789 C7.0905156,10.4731183 7.13904864,9.16019421 6.928253,8.92816385 C5.92524842,7.84204077 5.43395647,6.37919692 5.57656198,4.92908161 C5.63011677,3.61698916 5.81929695,3.01858295 6.44586526,2.31070719 C7.09288281,1.57972857 8.01444634,1.15032812 9.00923547,1.12511374 C9.98584645,1.14917295 10.9085178,1.57807917 11.556452,2.30919413 C12.1815828,3.01457826 12.3692021,3.60986022 12.425715,4.90782922 C12.5697935,6.37919692 12.0785016,7.84204077 11.0775516,8.92592078 C10.8647069,9.16018817 10.9132354,10.4731456 11.1830374,10.5830596 C11.2803722,10.6186812 12.4909925,11.0644767 12.8094366,11.1846871 Z M16.1150963,16.125 C16.0612675,15.2334716 15.8554279,14.3587922 15.5120214,13.5531933 C15.3384032,13.2056026 14.8216568,12.8454771 13.9014613,12.4344 C13.5339993,12.2702444 13.1061846,12.0983661 12.5445611,11.8863572 C12.2243254,11.7654705 10.9843414,11.3089103 10.9192028,11.2851492 C10.0680917,10.9598215 9.99579086,9.00124453 10.524503,8.41933615 C11.3823287,7.49042285 11.8025091,6.23931686 11.6778618,4.96084262 C11.626821,3.79966478 11.4897305,3.36470156 10.9951539,2.80663199 C10.4852983,2.23132202 9.75925382,1.8938183 9.00968162,1.874875 C8.24177378,1.89470719 7.51660099,2.23259982 7.00746678,2.80780249 C6.51114843,3.36852623 6.37305337,3.80534232 6.32446496,4.98092078 C6.20124089,6.23931686 6.62142129,7.49042285 7.48130161,8.42157922 C8.00795972,9.00124513 7.93565948,10.9597888 7.0842362,11.2852643 C7.01887757,11.3091058 5.77935605,11.7654964 5.45918893,11.8863572 C4.89756536,12.0983661 4.46975068,12.2702444 4.10228873,12.4344 C3.1820932,12.8454771 2.66534676,13.2056026 2.50111749,13.532905 C2.14948106,14.3562887 1.94262084,15.2331851 1.88866929,16.125 L16.1150963,16.125 Z" id="Shape" fill="#FFFFFF"></path>
    </g>
</svg>