<?xml version="1.0" encoding="UTF-8"?>
<svg width="18px" height="18px" viewBox="0 0 18 18" version="1.1" xmlns="http://www.w3.org/2000/svg" xmlns:xlink="http://www.w3.org/1999/xlink">
    <title>icons/wechat</title>
    <g id="icons/wechat" stroke="none" stroke-width="1" fill="none" fill-rule="evenodd">
        <g id="001-wechat" transform="translate(0.000000, 1.000000)" fill="#FFFFFF" fill-rule="nonzero">
            <path d="M6.6122449,0 C2.96008163,0 0,2.46746939 0,5.51020408 C0,7.26465306 0.989632653,8.82073469 2.52477551,9.828 L1.65306122,11.5714286 L4.02795918,10.5542449 C4.53710204,10.7349796 5.06608163,10.8837551 5.63142857,10.9531837 C5.55428571,10.6170612 5.51020408,10.2721224 5.51020408,9.91836735 C5.51020408,6.88004082 8.47579592,4.40816327 12.122449,4.40816327 C12.4563673,4.40816327 12.7825714,4.43571429 13.1043673,4.47538776 C12.5224898,1.92746939 9.83902041,0 6.6122449,0 Z M4.40816327,4.13265306 C3.95191837,4.13265306 3.58163265,3.76236735 3.58163265,3.30612245 C3.58163265,2.84987755 3.95191837,2.47959184 4.40816327,2.47959184 C4.86440816,2.47959184 5.23469388,2.84987755 5.23469388,3.30612245 C5.23469388,3.76236735 4.86440816,4.13265306 4.40816327,4.13265306 Z M8.81632653,4.13265306 C8.36008163,4.13265306 7.98979592,3.76236735 7.98979592,3.30612245 C7.98979592,2.84987755 8.36008163,2.47959184 8.81632653,2.47959184 C9.27257143,2.47959184 9.64285714,2.84987755 9.64285714,3.30612245 C9.64285714,3.76236735 9.27257143,4.13265306 8.81632653,4.13265306 Z" id="Shape"></path>
            <path d="M17.6326531,9.91836735 C17.6326531,7.48395918 15.1651837,5.51020408 12.122449,5.51020408 C9.07971429,5.51020408 6.6122449,7.48395918 6.6122449,9.91836735 C6.6122449,12.3527755 9.07971429,14.3265306 12.122449,14.3265306 C12.6227755,14.3265306 13.0988571,14.256 13.5606122,14.1557143 L16.5306122,15.4285714 L15.5035102,13.3754694 C16.7906939,12.5687755 17.6326531,11.3278776 17.6326531,9.91836735 Z M10.4693878,9.64285714 C10.0131429,9.64285714 9.64285714,9.27257143 9.64285714,8.81632653 C9.64285714,8.36008163 10.0131429,7.98979592 10.4693878,7.98979592 C10.9256327,7.98979592 11.2959184,8.36008163 11.2959184,8.81632653 C11.2959184,9.27257143 10.9256327,9.64285714 10.4693878,9.64285714 Z M13.7755102,9.64285714 C13.3192653,9.64285714 12.9489796,9.27257143 12.9489796,8.81632653 C12.9489796,8.36008163 13.3192653,7.98979592 13.7755102,7.98979592 C14.2317551,7.98979592 14.6020408,8.36008163 14.6020408,8.81632653 C14.6020408,9.27257143 14.2317551,9.64285714 13.7755102,9.64285714 Z" id="Shape"></path>
        </g>
    </g>
</svg>