<?xml version="1.0" encoding="UTF-8"?>
<svg width="18px" height="18px" viewBox="0 0 18 18" version="1.1" xmlns="http://www.w3.org/2000/svg" xmlns:xlink="http://www.w3.org/1999/xlink">
    <title>icons/worldwide</title>
    <g id="icons/worldwide" stroke="none" stroke-width="1" fill="none" fill-rule="evenodd">
        <g id="Light" fill="#FFFFFF">
            <path d="M10.1063739,9.19424694 C10.3440208,9.06988053 10.6299923,9.08189133 10.8544844,9.22455415 L10.8544844,9.22455415 L13.5619242,10.9233886 L16.1381551,9.89470749 C16.7748363,9.62755531 17.5015367,9.89169809 17.8246889,10.4853426 L17.8837925,10.6084051 C18.1687548,11.2875317 17.8492216,12.0690802 17.1765363,12.3512686 L17.1765363,12.3512686 L14.7037994,13.4436567 L12.7378623,17.0318142 C12.6656023,17.160303 12.5570824,17.2646491 12.4272367,17.3311058 L12.4272367,17.3311058 L11.7052157,17.7044163 C11.4283936,17.8509776 11.0896428,17.8100728 10.8556638,17.6018315 C10.6216847,17.3935901 10.5417579,17.0618718 10.6548005,16.7709897 L10.6548005,16.7709897 L11.4358231,14.7428068 L9.00533538,15.703697 C8.78070096,15.7921066 8.52724325,15.7669841 8.32416318,15.6360859 L8.32416318,15.6360859 L5.58163678,13.8662301 C5.36157375,13.7244362 5.23137023,13.4781572 5.23811196,13.2164555 C5.24485369,12.9547537 5.38756494,12.7155053 5.61431764,12.5854134 L5.61431764,12.5854134 L6.41917835,12.1225998 C6.62713339,12.003115 6.87969081,11.990292 7.09889037,12.0881945 L7.09889037,12.0881945 L8.7712975,12.8363948 L10.9169242,11.9793886 L9.2671688,10.882056 C9.07729676,10.7558533 8.95689329,10.5515435 8.93569081,10.3285031 L8.93349398,10.215697 C8.94829947,9.95012338 9.10265835,9.71225786 9.33864311,9.59082704 L9.33864311,9.59082704 Z M17.1922075,10.8985949 C17.0675126,10.6014202 16.7255197,10.4615976 16.4223179,10.5887601 L16.4223179,10.5887601 L8.90206788,13.5917601 C8.80786832,13.6293761 8.70244853,13.6272278 8.60985963,13.5858055 L8.60985963,13.5858055 L6.79287701,12.7728684 L5.98808682,13.2359141 L8.73012792,15.0060147 L11.9551279,13.7310147 C12.2589167,13.6109122 12.5603413,13.9096638 12.4429495,14.2145103 L12.4429495,14.2145103 L11.3575133,17.0398942 L12.0841402,16.6641858 L12.0821264,16.6678136 L14.1071264,12.9718136 C14.1467351,12.8995203 14.209061,12.8422923 14.2844637,12.8089814 L14.2844637,12.8089814 L16.8799051,11.6624575 C17.1770798,11.5377626 17.3169024,11.1957697 17.1922075,10.8985949 Z M0.149334408,4.99484569 C0.748462576,2.08183915 3.41494044,0.0210825939 6.42489273,0.221886699 C9.57591519,0.432102072 12.0246134,3.04886809 12.0255,6.20689473 C12.0255,6.4140015 11.857712,6.58194185 11.6506053,6.58199999 C11.4434985,6.58205813 11.2755582,6.41421204 11.2755,6.20710527 C11.2751877,5.09462983 10.9277238,4.05891663 10.332769,3.2064668 L8.4863536,3.20699999 C8.31423967,3.20704753 8.16425516,3.32425192 8.12255344,3.49145086 L8.12255344,3.49145086 L7.74760359,4.99125001 C7.71967165,5.10324047 7.7448678,5.22185453 7.81591197,5.31282036 C7.88695613,5.4037862 7.99593238,5.45696813 8.11125,5.457 L8.11125,5.457 L8.901,5.457 C9.08433648,5.457 9.24079466,5.58956062 9.27090719,5.77040724 L9.27090719,5.77040724 L9.66615719,8.14415724 C9.70017394,8.34845134 9.56213686,8.54164045 9.35784276,8.57565719 C9.15354866,8.60967394 8.96035955,8.47163686 8.92634281,8.26734276 L8.92634281,8.26734276 L8.58327783,6.20699999 L8.11114641,6.20699999 C7.76488279,6.20690433 7.43795404,6.04735853 7.22482154,5.77446103 C7.01168904,5.50156354 6.9361006,5.14572136 7.01994656,4.80954914 L7.01994656,4.80954914 L7.3948964,3.30975001 C7.5198511,2.80875583 7.96980463,2.45714266 8.48625,2.457 L8.48625,2.457 L9.69700469,2.45586898 C8.83118657,1.60840158 7.67096763,1.05668372 6.37496867,0.970223246 C3.89557078,0.804814221 1.68252711,2.39317836 0.994327114,4.70646939 L3.1906036,4.707 C3.70694537,4.70714266 4.1568989,5.05875583 4.28180344,5.55954914 L4.28180344,5.55954914 L4.65685359,7.05974999 C4.7406494,7.39572136 4.66506096,7.75156354 4.45192846,8.02446103 C4.23879596,8.29735853 3.91186721,8.45690433 3.5655,8.457 L3.5655,8.457 L3.3329444,8.457 L2.93417279,10.4530996 C3.52647706,10.8850018 4.21818585,11.198675 4.98040001,11.3535053 C5.18336175,11.3947333 5.31447279,11.5926883 5.27324473,11.79565 C5.23201666,11.9986117 5.03406172,12.1297228 4.83109999,12.0884947 C1.73627816,11.4598367 -0.341481264,8.53981904 0.0788956567,5.40989632 C0.0964398425,5.27927082 0.11808452,5.15014605 0.143685919,5.02263956 C0.144345277,5.01687936 0.145302996,5.01163223 0.146368667,5.00642442 Z M10.4523569,9.85967296 L9.68242495,10.2575063 L11.7629242,11.6413886 L12.6999242,11.2673886 L10.4523569,9.85967296 Z M3.1905,5.457 L0.829924152,5.45638863 L0.822221227,5.50973166 C0.598820652,7.17306403 1.18172429,8.76864697 2.28059881,9.88845515 L2.65777804,8.00847749 C2.69282641,7.8331835 2.84673655,7.707 3.0255,7.707 L3.0255,7.707 L3.56539641,7.707 C3.68081762,7.70696813 3.78979387,7.6537862 3.86083803,7.56282036 C3.9318822,7.47185453 3.95707835,7.35324047 3.92919656,7.24145086 L3.92919656,7.24145086 L3.5541464,5.74124999 C3.51249484,5.57425192 3.36251033,5.45704753 3.1905,5.457 L3.1905,5.457 Z" id="Combined-Shape"></path>
        </g>
    </g>
</svg>